<svg width="440" height="808" viewBox="0 0 440 808" fill="none" xmlns="http://www.w3.org/2000/svg">
<g filter="url(#filter0_ddd_297053_2137)">
<rect x="6" y="5" width="428" height="796" fill="white"/>
</g>
<path d="M86 741C86 746.523 83.7614 751.523 80.1421 755.142C76.5228 758.761 71.5228 761 66 761C60.4772 761 55.4772 758.761 51.8579 755.142C48.2386 751.523 46 746.523 46 741C46 735.477 48.2386 730.477 51.8579 726.858C55.4772 723.239 60.4772 721 66 721C71.5228 721 76.5228 723.239 80.1421 726.858C83.7614 730.477 86 735.477 86 741Z" fill="#4D5AE5"/>
<g clip-path="url(#clip0_297053_2137)">
<path d="M77.9763 736.056C77.9201 734.781 77.7139 733.904 77.4185 733.144C77.1137 732.338 76.6449 731.616 76.0306 731.016C75.4305 730.407 74.7038 729.933 73.9068 729.633C73.1427 729.338 72.2706 729.131 70.9954 729.075C69.7106 729.014 69.3028 729 66.0443 729C62.7859 729 62.378 729.014 61.0981 729.07C59.8228 729.127 58.9461 729.333 58.1867 729.628C57.3801 729.933 56.6582 730.402 56.058 731.016C55.4485 731.616 54.9751 732.343 54.6749 733.14C54.3795 733.904 54.1733 734.776 54.1171 736.051C54.0561 737.336 54.042 737.744 54.042 741.002C54.042 744.261 54.0561 744.669 54.1123 745.949C54.1685 747.224 54.3749 748.101 54.6703 748.86C54.9751 749.667 55.4485 750.389 56.058 750.989C56.6582 751.598 57.3849 752.072 58.1819 752.372C58.9461 752.667 59.8181 752.873 61.0935 752.93C62.3733 752.986 62.7813 753 66.0397 753C69.2982 753 69.706 752.986 70.986 752.93C72.2612 752.873 73.1379 752.667 73.8974 752.372C75.5103 751.748 76.7855 750.473 77.4091 748.86C77.7044 748.096 77.9108 747.224 77.967 745.949C78.0232 744.669 78.0373 744.261 78.0373 741.002C78.0373 737.744 78.0326 737.336 77.9763 736.056ZM75.8151 745.855C75.7634 747.027 75.5666 747.66 75.4025 748.082C74.9992 749.127 74.1694 749.957 73.1238 750.36C72.7019 750.525 72.0644 750.721 70.8968 750.773C69.631 750.829 69.2513 750.843 66.0491 750.843C62.8469 750.843 62.4625 750.829 61.2012 750.773C60.0291 750.721 59.3961 750.525 58.9742 750.36C58.4539 750.168 57.9803 749.863 57.5958 749.465C57.1973 749.076 56.8926 748.607 56.7003 748.087C56.5362 747.665 56.3393 747.027 56.2879 745.86C56.2314 744.594 56.2175 744.214 56.2175 741.012C56.2175 737.809 56.2314 737.425 56.2879 736.164C56.3393 734.992 56.5362 734.359 56.7003 733.937C56.8926 733.416 57.1973 732.943 57.6006 732.558C57.9896 732.16 58.4584 731.855 58.9789 731.663C59.4009 731.499 60.0386 731.302 61.2059 731.25C62.4718 731.194 62.8516 731.18 66.0537 731.18C69.2606 731.18 69.6403 731.194 70.9016 731.25C72.0737 731.302 72.7066 731.499 73.1286 731.663C73.6489 731.855 74.1225 732.16 74.5069 732.558C74.9054 732.948 75.2102 733.416 75.4025 733.937C75.5666 734.359 75.7634 734.996 75.8151 736.164C75.8713 737.43 75.8854 737.809 75.8854 741.012C75.8854 744.214 75.8713 744.589 75.8151 745.855Z" fill="#F4F4FD"/>
<path d="M66.0442 734.837C62.6405 734.837 59.8789 737.598 59.8789 741.002C59.8789 744.406 62.6405 747.168 66.0442 747.168C69.448 747.168 72.2094 744.406 72.2094 741.002C72.2094 737.598 69.448 734.837 66.0442 734.837ZM66.0442 745.002C63.836 745.002 62.0449 743.211 62.0449 741.002C62.0449 738.794 63.836 737.003 66.0442 737.003C68.2525 737.003 70.0434 738.794 70.0434 741.002C70.0434 743.211 68.2525 745.002 66.0442 745.002Z" fill="#F4F4FD"/>
<path d="M73.8935 734.593C73.8935 735.388 73.249 736.033 72.454 736.033C71.6591 736.033 71.0146 735.388 71.0146 734.593C71.0146 733.798 71.6591 733.154 72.454 733.154C73.249 733.154 73.8935 733.798 73.8935 734.593Z" fill="#F4F4FD"/>
</g>
<path d="M182 741C182 746.523 179.761 751.523 176.142 755.142C172.523 758.761 167.523 761 162 761C156.477 761 151.477 758.761 147.858 755.142C144.239 751.523 142 746.523 142 741C142 735.477 144.239 730.477 147.858 726.858C151.477 723.239 156.477 721 162 721C167.523 721 172.523 723.239 176.142 726.858C179.761 730.477 182 735.477 182 741Z" fill="#4D5AE5"/>
<g clip-path="url(#clip1_297053_2137)">
<path d="M174 733.559C173.108 733.95 172.156 734.209 171.165 734.335C172.185 733.726 172.964 732.769 173.33 731.616C172.378 732.183 171.328 732.584 170.209 732.807C169.306 731.846 168.019 731.25 166.615 731.25C163.891 731.25 161.698 733.461 161.698 736.172C161.698 736.562 161.731 736.936 161.812 737.293C157.722 737.094 154.102 735.134 151.671 732.147C151.247 732.884 150.998 733.727 150.998 734.634C150.998 736.338 151.875 737.848 153.183 738.723C152.392 738.708 151.617 738.478 150.96 738.117C150.96 738.132 150.96 738.151 150.96 738.171C150.96 740.562 152.665 742.548 154.902 743.005C154.501 743.115 154.065 743.167 153.612 743.167C153.297 743.167 152.979 743.149 152.681 743.083C153.318 745.032 155.127 746.464 157.278 746.511C155.604 747.82 153.479 748.61 151.178 748.61C150.774 748.61 150.387 748.591 150 748.542C152.179 749.948 154.763 750.75 157.548 750.75C166.602 750.75 171.552 743.25 171.552 736.749C171.552 736.531 171.545 736.322 171.534 736.113C172.51 735.42 173.331 734.555 174 733.559Z" fill="#F4F4FD"/>
</g>
<path d="M278 741C278 746.523 275.761 751.523 272.142 755.142C268.523 758.761 263.523 761 258 761C252.477 761 247.477 758.761 243.858 755.142C240.239 751.523 238 746.523 238 741C238 735.477 240.239 730.477 243.858 726.858C247.477 723.239 252.477 721 258 721C263.523 721 268.523 723.239 272.142 726.858C275.761 730.477 278 735.477 278 741Z" fill="#4D5AE5"/>
<g clip-path="url(#clip2_297053_2137)">
<path d="M261.997 732.985H264.188V729.169C263.81 729.117 262.51 729 260.996 729C257.837 729 255.673 730.987 255.673 734.639V738H252.187V742.266H255.673V753H259.947V742.267H263.292L263.823 738.001H259.946V735.062C259.947 733.829 260.279 732.985 261.997 732.985Z" fill="#F4F4FD"/>
</g>
<path d="M374 741C374 746.523 371.761 751.523 368.142 755.142C364.523 758.761 359.523 761 354 761C348.477 761 343.477 758.761 339.858 755.142C336.239 751.523 334 746.523 334 741C334 735.477 336.239 730.477 339.858 726.858C343.477 723.239 348.477 721 354 721C359.523 721 364.523 723.239 368.142 726.858C371.761 730.477 374 735.477 374 741Z" fill="#4D5AE5"/>
<g clip-path="url(#clip3_297053_2137)">
<path d="M365.994 753V752.999H366V744.197C366 739.891 365.073 736.574 360.039 736.574C357.619 736.574 355.995 737.902 355.332 739.161H355.262V736.976H350.489V752.999H355.459V745.065C355.459 742.976 355.855 740.956 358.442 740.956C360.991 740.956 361.029 743.34 361.029 745.199V753H365.994Z" fill="#F4F4FD"/>
<path d="M342.396 736.977H347.372V753H342.396V736.977Z" fill="#F4F4FD"/>
<path d="M344.882 729C343.291 729 342 730.291 342 731.882C342 733.473 343.291 734.791 344.882 734.791C346.473 734.791 347.764 733.473 347.764 731.882C347.763 730.291 346.472 729 344.882 729V729Z" fill="#F4F4FD"/>
</g>
<path d="M64.5273 586.744V591.156H46.9844V586.744H64.5273ZM58.1641 579.801V598.434H53.3652V579.801H58.1641ZM80.4348 575.354V601H75.3723V581.189L69.2903 583.123V579.133L79.8899 575.354H80.4348ZM101.827 575.354V601H96.7642V581.189L90.6822 583.123V579.133L101.282 575.354H101.827ZM121.003 590.98V590.594C121.003 588.121 121.261 585.877 121.776 583.861C122.304 581.846 122.995 580.076 123.851 578.553C124.718 577.018 125.661 575.746 126.681 574.738C127.7 573.73 128.714 573.004 129.722 572.559L130.689 575.23C130.021 575.723 129.364 576.402 128.72 577.27C128.075 578.125 127.489 579.18 126.962 580.434C126.446 581.676 126.03 583.141 125.714 584.828C125.398 586.504 125.239 588.414 125.239 590.559V591.016C125.239 593.16 125.398 595.076 125.714 596.764C126.03 598.439 126.446 599.904 126.962 601.158C127.489 602.424 128.075 603.49 128.72 604.357C129.364 605.225 130.021 605.91 130.689 606.414L129.722 609.016C128.714 608.57 127.7 607.844 126.681 606.836C125.661 605.84 124.718 604.574 123.851 603.039C122.995 601.516 122.304 599.746 121.776 597.73C121.261 595.703 121.003 593.453 121.003 590.98ZM151.096 585.953V590.383C151.096 592.305 150.891 593.963 150.481 595.357C150.071 596.74 149.479 597.877 148.705 598.768C147.944 599.646 147.036 600.297 145.981 600.719C144.926 601.141 143.754 601.352 142.465 601.352C141.434 601.352 140.473 601.223 139.582 600.965C138.692 600.695 137.889 600.279 137.174 599.717C136.471 599.154 135.862 598.445 135.346 597.59C134.842 596.723 134.455 595.691 134.186 594.496C133.916 593.301 133.782 591.93 133.782 590.383V585.953C133.782 584.031 133.987 582.385 134.397 581.014C134.819 579.631 135.411 578.5 136.172 577.621C136.946 576.742 137.86 576.098 138.914 575.688C139.969 575.266 141.141 575.055 142.43 575.055C143.461 575.055 144.416 575.189 145.295 575.459C146.186 575.717 146.989 576.121 147.704 576.672C148.418 577.223 149.028 577.932 149.532 578.799C150.036 579.654 150.422 580.68 150.692 581.875C150.961 583.059 151.096 584.418 151.096 585.953ZM146.016 591.051V585.268C146.016 584.342 145.963 583.533 145.858 582.842C145.764 582.15 145.618 581.564 145.418 581.084C145.219 580.592 144.973 580.193 144.68 579.889C144.387 579.584 144.053 579.361 143.678 579.221C143.303 579.08 142.887 579.01 142.43 579.01C141.856 579.01 141.346 579.121 140.901 579.344C140.467 579.566 140.098 579.924 139.793 580.416C139.489 580.896 139.254 581.541 139.09 582.35C138.938 583.146 138.862 584.119 138.862 585.268V591.051C138.862 591.977 138.909 592.791 139.002 593.494C139.108 594.197 139.26 594.801 139.459 595.305C139.67 595.797 139.916 596.201 140.198 596.518C140.491 596.822 140.825 597.045 141.2 597.186C141.586 597.326 142.008 597.396 142.465 597.396C143.028 597.396 143.526 597.285 143.959 597.062C144.405 596.828 144.78 596.465 145.084 595.973C145.401 595.469 145.635 594.812 145.787 594.004C145.94 593.195 146.016 592.211 146.016 591.051ZM172.488 585.953V590.383C172.488 592.305 172.283 593.963 171.873 595.357C171.463 596.74 170.871 597.877 170.097 598.768C169.336 599.646 168.427 600.297 167.373 600.719C166.318 601.141 165.146 601.352 163.857 601.352C162.826 601.352 161.865 601.223 160.974 600.965C160.084 600.695 159.281 600.279 158.566 599.717C157.863 599.154 157.254 598.445 156.738 597.59C156.234 596.723 155.847 595.691 155.578 594.496C155.308 593.301 155.174 591.93 155.174 590.383V585.953C155.174 584.031 155.379 582.385 155.789 581.014C156.211 579.631 156.802 578.5 157.564 577.621C158.338 576.742 159.252 576.098 160.306 575.688C161.361 575.266 162.533 575.055 163.822 575.055C164.853 575.055 165.808 575.189 166.687 575.459C167.578 575.717 168.381 576.121 169.095 576.672C169.81 577.223 170.42 577.932 170.924 578.799C171.427 579.654 171.814 580.68 172.084 581.875C172.353 583.059 172.488 584.418 172.488 585.953ZM167.408 591.051V585.268C167.408 584.342 167.355 583.533 167.25 582.842C167.156 582.15 167.009 581.564 166.81 581.084C166.611 580.592 166.365 580.193 166.072 579.889C165.779 579.584 165.445 579.361 165.07 579.221C164.695 579.08 164.279 579.01 163.822 579.01C163.248 579.01 162.738 579.121 162.293 579.344C161.859 579.566 161.49 579.924 161.185 580.416C160.881 580.896 160.646 581.541 160.482 582.35C160.33 583.146 160.254 584.119 160.254 585.268V591.051C160.254 591.977 160.3 592.791 160.394 593.494C160.5 594.197 160.652 594.801 160.851 595.305C161.062 595.797 161.308 596.201 161.59 596.518C161.882 596.822 162.216 597.045 162.591 597.186C162.978 597.326 163.4 597.396 163.857 597.396C164.42 597.396 164.918 597.285 165.351 597.062C165.797 596.828 166.172 596.465 166.476 595.973C166.793 595.469 167.027 594.812 167.179 594.004C167.332 593.195 167.408 592.211 167.408 591.051ZM193.88 585.953V590.383C193.88 592.305 193.675 593.963 193.265 595.357C192.854 596.74 192.263 597.877 191.489 598.768C190.727 599.646 189.819 600.297 188.765 600.719C187.71 601.141 186.538 601.352 185.249 601.352C184.218 601.352 183.257 601.223 182.366 600.965C181.476 600.695 180.673 600.279 179.958 599.717C179.255 599.154 178.645 598.445 178.13 597.59C177.626 596.723 177.239 595.691 176.97 594.496C176.7 593.301 176.565 591.93 176.565 590.383V585.953C176.565 584.031 176.77 582.385 177.181 581.014C177.602 579.631 178.194 578.5 178.956 577.621C179.729 576.742 180.644 576.098 181.698 575.688C182.753 575.266 183.925 575.055 185.214 575.055C186.245 575.055 187.2 575.189 188.079 575.459C188.97 575.717 189.772 576.121 190.487 576.672C191.202 577.223 191.811 577.932 192.315 578.799C192.819 579.654 193.206 580.68 193.476 581.875C193.745 583.059 193.88 584.418 193.88 585.953ZM188.8 591.051V585.268C188.8 584.342 188.747 583.533 188.642 582.842C188.548 582.15 188.401 581.564 188.202 581.084C188.003 580.592 187.757 580.193 187.464 579.889C187.171 579.584 186.837 579.361 186.462 579.221C186.087 579.08 185.671 579.01 185.214 579.01C184.64 579.01 184.13 579.121 183.685 579.344C183.251 579.566 182.882 579.924 182.577 580.416C182.272 580.896 182.038 581.541 181.874 582.35C181.722 583.146 181.645 584.119 181.645 585.268V591.051C181.645 591.977 181.692 592.791 181.786 593.494C181.892 594.197 182.044 594.801 182.243 595.305C182.454 595.797 182.7 596.201 182.981 596.518C183.274 596.822 183.608 597.045 183.983 597.186C184.37 597.326 184.792 597.396 185.249 597.396C185.811 597.396 186.31 597.285 186.743 597.062C187.188 596.828 187.563 596.465 187.868 595.973C188.185 595.469 188.419 594.812 188.571 594.004C188.724 593.195 188.8 592.211 188.8 591.051ZM206.957 590.594V590.98C206.957 593.371 206.688 595.574 206.149 597.59C205.61 599.594 204.895 601.369 204.004 602.916C203.125 604.475 202.158 605.77 201.104 606.801C200.061 607.832 199.018 608.57 197.975 609.016L196.99 606.414C197.658 605.922 198.309 605.242 198.942 604.375C199.586 603.508 200.172 602.441 200.699 601.176C201.227 599.922 201.643 598.451 201.947 596.764C202.264 595.076 202.422 593.16 202.422 591.016V590.559C202.422 588.414 202.264 586.498 201.947 584.811C201.631 583.123 201.203 581.652 200.664 580.398C200.137 579.133 199.551 578.072 198.906 577.217C198.274 576.35 197.635 575.67 196.99 575.178L197.975 572.559C199.018 573.004 200.061 573.748 201.104 574.791C202.158 575.822 203.125 577.111 204.004 578.658C204.895 580.205 205.61 581.986 206.149 584.002C206.688 586.006 206.957 588.203 206.957 590.594ZM233.446 575.354V601H228.384V581.189L222.302 583.123V579.133L232.901 575.354H233.446ZM254.838 575.354V601H249.775V581.189L243.693 583.123V579.133L254.293 575.354H254.838ZM276.23 575.354V601H271.167V581.189L265.085 583.123V579.133L275.685 575.354H276.23ZM295.477 588.027V592H285.546V588.027H295.477ZM312.545 575.354V601H307.482V581.189L301.4 583.123V579.133L312 575.354H312.545ZM333.937 575.354V601H328.874V581.189L322.792 583.123V579.133L333.392 575.354H333.937ZM353.184 588.027V592H343.252V588.027H353.184ZM370.252 575.354V601H365.189V581.189L359.107 583.123V579.133L369.707 575.354H370.252ZM391.644 575.354V601H386.581V581.189L380.499 583.123V579.133L391.099 575.354H391.644Z" fill="#4D5AE5"/>
<path d="M49.7305 657.434V668H47.3672V657.434H49.7305ZM47.2109 654.66C47.2109 654.302 47.3281 654.006 47.5625 653.771C47.8034 653.531 48.1354 653.41 48.5586 653.41C48.9753 653.41 49.304 653.531 49.5449 653.771C49.7858 654.006 49.9062 654.302 49.9062 654.66C49.9062 655.012 49.7858 655.305 49.5449 655.539C49.304 655.773 48.9753 655.891 48.5586 655.891C48.1354 655.891 47.8034 655.773 47.5625 655.539C47.3281 655.305 47.2109 655.012 47.2109 654.66ZM55.0426 659.689V668H52.6891V657.434H54.9059L55.0426 659.689ZM54.6227 662.326L53.8609 662.316C53.8674 661.568 53.9716 660.881 54.1734 660.256C54.3818 659.631 54.6682 659.094 55.0328 658.645C55.4039 658.195 55.8466 657.85 56.3609 657.609C56.8753 657.362 57.4482 657.238 58.0797 657.238C58.5875 657.238 59.0465 657.31 59.4566 657.453C59.8733 657.59 60.2281 657.814 60.5211 658.127C60.8206 658.439 61.0484 658.846 61.2047 659.348C61.3609 659.842 61.4391 660.451 61.4391 661.174V668H59.0758V661.164C59.0758 660.656 59.0009 660.256 58.8512 659.963C58.7079 659.663 58.4964 659.452 58.2164 659.328C57.943 659.198 57.6012 659.133 57.191 659.133C56.7874 659.133 56.426 659.217 56.107 659.387C55.788 659.556 55.5178 659.787 55.2965 660.08C55.0816 660.373 54.9156 660.712 54.7984 661.096C54.6813 661.48 54.6227 661.89 54.6227 662.326ZM67.425 668H65.0715V656.418C65.0715 655.63 65.218 654.969 65.5109 654.436C65.8104 653.895 66.2368 653.488 66.7902 653.215C67.3436 652.935 67.9979 652.795 68.7531 652.795C68.9875 652.795 69.2186 652.811 69.4465 652.844C69.6743 652.87 69.8957 652.912 70.1105 652.971L70.052 654.787C69.9217 654.755 69.7785 654.732 69.6223 654.719C69.4725 654.706 69.3098 654.699 69.134 654.699C68.7759 654.699 68.4667 654.768 68.2062 654.904C67.9523 655.035 67.757 655.227 67.6203 655.48C67.4901 655.734 67.425 656.047 67.425 656.418V668ZM69.6027 657.434V659.152H63.4504V657.434H69.6027ZM71.2625 662.834V662.609C71.2625 661.848 71.3732 661.141 71.5945 660.49C71.8159 659.833 72.1349 659.263 72.5516 658.781C72.9747 658.293 73.4891 657.915 74.0945 657.648C74.7065 657.375 75.3966 657.238 76.1648 657.238C76.9396 657.238 77.6297 657.375 78.2352 657.648C78.8471 657.915 79.3647 658.293 79.7879 658.781C80.2111 659.263 80.5333 659.833 80.7547 660.49C80.976 661.141 81.0867 661.848 81.0867 662.609V662.834C81.0867 663.596 80.976 664.302 80.7547 664.953C80.5333 665.604 80.2111 666.174 79.7879 666.662C79.3647 667.144 78.8504 667.521 78.2449 667.795C77.6395 668.062 76.9526 668.195 76.1844 668.195C75.4096 668.195 74.7163 668.062 74.1043 667.795C73.4988 667.521 72.9845 667.144 72.5613 666.662C72.1382 666.174 71.8159 665.604 71.5945 664.953C71.3732 664.302 71.2625 663.596 71.2625 662.834ZM73.616 662.609V662.834C73.616 663.309 73.6648 663.758 73.7625 664.182C73.8602 664.605 74.0132 664.976 74.2215 665.295C74.4298 665.614 74.6967 665.865 75.0223 666.047C75.3478 666.229 75.7352 666.32 76.1844 666.32C76.6206 666.32 76.9982 666.229 77.3172 666.047C77.6427 665.865 77.9096 665.614 78.118 665.295C78.3263 664.976 78.4793 664.605 78.577 664.182C78.6811 663.758 78.7332 663.309 78.7332 662.834V662.609C78.7332 662.141 78.6811 661.698 78.577 661.281C78.4793 660.858 78.323 660.484 78.1082 660.158C77.8999 659.833 77.6329 659.579 77.3074 659.396C76.9884 659.208 76.6076 659.113 76.1648 659.113C75.7221 659.113 75.338 659.208 75.0125 659.396C74.6935 659.579 74.4298 659.833 74.2215 660.158C74.0132 660.484 73.8602 660.858 73.7625 661.281C73.6648 661.698 73.616 662.141 73.616 662.609ZM99.2699 662.922C99.2439 663.553 99.1495 664.182 98.9867 664.807C98.824 665.432 98.5766 666.001 98.2445 666.516C97.919 667.03 97.4991 667.44 96.9848 667.746C96.4704 668.052 95.852 668.205 95.1293 668.205C94.6931 668.205 94.3057 668.13 93.9672 667.98C93.6286 667.824 93.3454 667.603 93.1176 667.316C92.8962 667.03 92.7367 666.685 92.6391 666.281C92.5414 665.871 92.5154 665.415 92.5609 664.914L93.059 659.377H94.768L94.2797 664.914C94.2406 665.311 94.2471 665.637 94.2992 665.891C94.3578 666.145 94.4457 666.34 94.5629 666.477C94.6801 666.613 94.8135 666.708 94.9633 666.76C95.113 666.812 95.2628 666.838 95.4125 666.838C95.7641 666.838 96.0798 666.74 96.3598 666.545C96.6397 666.343 96.8773 666.066 97.0727 665.715C97.2745 665.357 97.4307 664.943 97.5414 664.475C97.6586 664.006 97.727 663.498 97.7465 662.951C97.7921 662.04 97.7497 661.2 97.6195 660.432C97.4893 659.657 97.268 658.967 96.9555 658.361C96.6495 657.756 96.2491 657.245 95.7543 656.828C95.266 656.405 94.6801 656.083 93.9965 655.861C93.3129 655.64 92.5316 655.529 91.6527 655.529C90.8454 655.529 90.1 655.653 89.4164 655.9C88.7328 656.148 88.1208 656.506 87.5805 656.975C87.0401 657.437 86.5746 657.993 86.184 658.645C85.7999 659.289 85.4971 660.015 85.2758 660.822C85.0609 661.623 84.934 662.482 84.8949 663.4C84.8493 664.364 84.8982 665.243 85.0414 666.037C85.1911 666.831 85.432 667.535 85.7641 668.146C86.0961 668.758 86.5128 669.273 87.0141 669.689C87.5219 670.113 88.1078 670.432 88.7719 670.646C89.4424 670.861 90.1846 670.969 90.9984 670.969C91.5714 670.969 92.1508 670.904 92.7367 670.773C93.3292 670.643 93.8272 670.471 94.2309 670.256L94.602 671.555C94.1462 671.848 93.5766 672.066 92.893 672.209C92.2094 672.352 91.5648 672.424 90.9594 672.424C89.9503 672.424 89.0258 672.294 88.1859 672.033C87.3526 671.773 86.6137 671.389 85.9691 670.881C85.3311 670.38 84.8005 669.764 84.3773 669.035C83.9542 668.306 83.6417 667.469 83.4398 666.525C83.238 665.581 83.1599 664.54 83.2055 663.4C83.251 662.333 83.4138 661.33 83.6937 660.393C83.9737 659.449 84.3578 658.592 84.8461 657.824C85.3409 657.056 85.9268 656.395 86.6039 655.842C87.2875 655.282 88.0557 654.852 88.9086 654.553C89.7615 654.253 90.6892 654.104 91.6918 654.104C92.7074 654.104 93.6254 654.237 94.4457 654.504C95.266 654.771 95.9854 655.158 96.6039 655.666C97.2289 656.174 97.7465 656.789 98.1566 657.512C98.5668 658.234 98.8663 659.051 99.0551 659.963C99.2439 660.868 99.3155 661.854 99.2699 662.922ZM89.3383 663.85C89.2927 664.292 89.2895 664.686 89.3285 665.031C89.3741 665.376 89.4555 665.666 89.5727 665.9C89.6964 666.135 89.8559 666.314 90.0512 666.438C90.2465 666.561 90.4743 666.623 90.7348 666.623C90.8975 666.623 91.0701 666.584 91.2523 666.506C91.4411 666.421 91.6267 666.288 91.809 666.105C91.9913 665.923 92.1638 665.682 92.3266 665.383C92.4893 665.077 92.626 664.699 92.7367 664.25L93.4789 665.1C93.3292 665.607 93.1404 666.057 92.9125 666.447C92.6846 666.831 92.4275 667.154 92.141 667.414C91.8546 667.668 91.5453 667.863 91.2133 668C90.8812 668.13 90.5362 668.195 90.1781 668.195C89.7029 668.195 89.2797 668.091 88.9086 667.883C88.544 667.674 88.2445 667.382 88.0102 667.004C87.7758 666.62 87.6098 666.164 87.5121 665.637C87.4145 665.103 87.3949 664.507 87.4535 663.85C87.5186 663.179 87.6423 662.557 87.8246 661.984C88.0134 661.411 88.2445 660.9 88.518 660.451C88.7979 660.002 89.1137 659.621 89.4652 659.309C89.8168 658.99 90.1944 658.749 90.598 658.586C91.0082 658.417 91.4281 658.332 91.8578 658.332C92.5935 658.332 93.1697 658.436 93.5863 658.645C94.003 658.853 94.3969 659.097 94.768 659.377L93.85 660.549C93.6612 660.373 93.4138 660.207 93.1078 660.051C92.8083 659.895 92.4503 659.816 92.0336 659.816C91.6625 659.816 91.324 659.901 91.018 660.07C90.7185 660.24 90.4548 660.497 90.227 660.842C89.9991 661.18 89.807 661.6 89.6508 662.102C89.501 662.603 89.3969 663.186 89.3383 663.85ZM108.254 665.812V653H110.617V668H108.479L108.254 665.812ZM101.379 662.834V662.629C101.379 661.828 101.473 661.099 101.662 660.441C101.851 659.777 102.124 659.208 102.482 658.732C102.84 658.251 103.277 657.883 103.791 657.629C104.305 657.368 104.885 657.238 105.529 657.238C106.167 657.238 106.727 657.362 107.209 657.609C107.691 657.857 108.101 658.212 108.439 658.674C108.778 659.13 109.048 659.676 109.25 660.314C109.452 660.946 109.595 661.649 109.68 662.424V663.078C109.595 663.833 109.452 664.523 109.25 665.148C109.048 665.773 108.778 666.314 108.439 666.77C108.101 667.225 107.688 667.577 107.199 667.824C106.717 668.072 106.154 668.195 105.51 668.195C104.872 668.195 104.296 668.062 103.781 667.795C103.273 667.528 102.84 667.154 102.482 666.672C102.124 666.19 101.851 665.624 101.662 664.973C101.473 664.315 101.379 663.602 101.379 662.834ZM103.732 662.629V662.834C103.732 663.316 103.775 663.765 103.859 664.182C103.951 664.598 104.09 664.966 104.279 665.285C104.468 665.598 104.712 665.845 105.012 666.027C105.318 666.203 105.682 666.291 106.105 666.291C106.639 666.291 107.079 666.174 107.424 665.939C107.769 665.705 108.039 665.389 108.234 664.992C108.436 664.589 108.573 664.139 108.645 663.645V661.877C108.605 661.493 108.524 661.135 108.4 660.803C108.283 660.471 108.124 660.181 107.922 659.934C107.72 659.68 107.469 659.484 107.17 659.348C106.877 659.204 106.529 659.133 106.125 659.133C105.695 659.133 105.331 659.224 105.031 659.406C104.732 659.589 104.484 659.839 104.289 660.158C104.1 660.477 103.96 660.848 103.869 661.271C103.778 661.695 103.732 662.147 103.732 662.629ZM118.136 668.195C117.355 668.195 116.649 668.068 116.017 667.814C115.392 667.554 114.858 667.193 114.416 666.73C113.979 666.268 113.644 665.725 113.41 665.1C113.175 664.475 113.058 663.801 113.058 663.078V662.688C113.058 661.861 113.179 661.112 113.42 660.441C113.66 659.771 113.996 659.198 114.425 658.723C114.855 658.241 115.363 657.873 115.949 657.619C116.535 657.365 117.17 657.238 117.853 657.238C118.608 657.238 119.269 657.365 119.836 657.619C120.402 657.873 120.871 658.231 121.242 658.693C121.619 659.149 121.899 659.693 122.082 660.324C122.27 660.956 122.365 661.652 122.365 662.414V663.42H114.201V661.73H120.041V661.545C120.028 661.122 119.943 660.725 119.787 660.354C119.637 659.982 119.406 659.683 119.093 659.455C118.781 659.227 118.364 659.113 117.843 659.113C117.453 659.113 117.104 659.198 116.798 659.367C116.499 659.53 116.248 659.768 116.046 660.08C115.845 660.393 115.688 660.77 115.578 661.213C115.474 661.649 115.421 662.141 115.421 662.688V663.078C115.421 663.54 115.483 663.97 115.607 664.367C115.737 664.758 115.926 665.1 116.173 665.393C116.421 665.686 116.72 665.917 117.072 666.086C117.423 666.249 117.824 666.33 118.273 666.33C118.839 666.33 119.344 666.216 119.787 665.988C120.229 665.76 120.614 665.438 120.939 665.021L122.179 666.223C121.951 666.555 121.655 666.874 121.291 667.18C120.926 667.479 120.48 667.723 119.953 667.912C119.432 668.101 118.826 668.195 118.136 668.195ZM127.902 666.135L130.489 657.434H132.931L129.259 668H127.736L127.902 666.135ZM125.919 657.434L128.556 666.174L128.683 668H127.159L123.468 657.434H125.919ZM140.714 665.139C140.714 664.904 140.655 664.693 140.538 664.504C140.421 664.309 140.196 664.133 139.864 663.977C139.539 663.82 139.057 663.677 138.419 663.547C137.859 663.423 137.345 663.277 136.876 663.107C136.414 662.932 136.016 662.72 135.684 662.473C135.352 662.225 135.095 661.932 134.913 661.594C134.731 661.255 134.639 660.865 134.639 660.422C134.639 659.992 134.734 659.585 134.923 659.201C135.111 658.817 135.382 658.479 135.733 658.186C136.085 657.893 136.511 657.661 137.012 657.492C137.52 657.323 138.087 657.238 138.712 657.238C139.597 657.238 140.356 657.388 140.987 657.688C141.625 657.98 142.113 658.381 142.452 658.889C142.79 659.39 142.96 659.956 142.96 660.588H140.606C140.606 660.308 140.535 660.048 140.391 659.807C140.255 659.559 140.046 659.361 139.766 659.211C139.486 659.055 139.135 658.977 138.712 658.977C138.308 658.977 137.973 659.042 137.706 659.172C137.445 659.296 137.25 659.458 137.12 659.66C136.996 659.862 136.934 660.083 136.934 660.324C136.934 660.5 136.967 660.66 137.032 660.803C137.104 660.939 137.221 661.066 137.384 661.184C137.546 661.294 137.768 661.398 138.048 661.496C138.334 661.594 138.692 661.688 139.122 661.779C139.929 661.949 140.623 662.167 141.202 662.434C141.788 662.694 142.237 663.033 142.55 663.449C142.862 663.859 143.018 664.38 143.018 665.012C143.018 665.48 142.917 665.91 142.716 666.301C142.52 666.685 142.234 667.02 141.856 667.307C141.479 667.587 141.026 667.805 140.499 667.961C139.978 668.117 139.392 668.195 138.741 668.195C137.784 668.195 136.973 668.026 136.309 667.688C135.645 667.342 135.141 666.903 134.796 666.369C134.457 665.829 134.288 665.269 134.288 664.689H136.563C136.589 665.126 136.71 665.474 136.925 665.734C137.146 665.988 137.419 666.174 137.745 666.291C138.077 666.402 138.419 666.457 138.77 666.457C139.193 666.457 139.548 666.402 139.835 666.291C140.121 666.174 140.339 666.018 140.489 665.822C140.639 665.62 140.714 665.393 140.714 665.139ZM150.323 657.434V659.152H144.366V657.434H150.323ZM146.084 654.846H148.438V665.08C148.438 665.406 148.483 665.656 148.575 665.832C148.672 666.001 148.806 666.115 148.975 666.174C149.144 666.232 149.343 666.262 149.571 666.262C149.733 666.262 149.89 666.252 150.039 666.232C150.189 666.213 150.31 666.193 150.401 666.174L150.411 667.971C150.215 668.029 149.987 668.081 149.727 668.127C149.473 668.173 149.18 668.195 148.848 668.195C148.308 668.195 147.829 668.101 147.412 667.912C146.996 667.717 146.67 667.401 146.436 666.965C146.202 666.529 146.084 665.949 146.084 665.227V654.846ZM158.896 665.51V657.434H161.26V668H159.033L158.896 665.51ZM159.229 663.312L160.02 663.293C160.02 664.003 159.941 664.657 159.785 665.256C159.629 665.848 159.388 666.366 159.062 666.809C158.737 667.245 158.32 667.587 157.812 667.834C157.305 668.075 156.696 668.195 155.986 668.195C155.472 668.195 155 668.12 154.57 667.971C154.141 667.821 153.77 667.59 153.457 667.277C153.151 666.965 152.913 666.558 152.744 666.057C152.575 665.555 152.49 664.956 152.49 664.26V657.434H154.844V664.279C154.844 664.663 154.889 664.986 154.98 665.246C155.072 665.5 155.195 665.705 155.352 665.861C155.508 666.018 155.69 666.128 155.898 666.193C156.107 666.258 156.328 666.291 156.562 666.291C157.233 666.291 157.76 666.161 158.145 665.9C158.535 665.633 158.812 665.275 158.975 664.826C159.144 664.377 159.229 663.872 159.229 663.312ZM170.517 665.812V653H172.88V668H170.742L170.517 665.812ZM163.642 662.834V662.629C163.642 661.828 163.737 661.099 163.925 660.441C164.114 659.777 164.388 659.208 164.746 658.732C165.104 658.251 165.54 657.883 166.054 657.629C166.569 657.368 167.148 657.238 167.793 657.238C168.431 657.238 168.99 657.362 169.472 657.609C169.954 657.857 170.364 658.212 170.703 658.674C171.041 659.13 171.311 659.676 171.513 660.314C171.715 660.946 171.858 661.649 171.943 662.424V663.078C171.858 663.833 171.715 664.523 171.513 665.148C171.311 665.773 171.041 666.314 170.703 666.77C170.364 667.225 169.951 667.577 169.463 667.824C168.981 668.072 168.418 668.195 167.773 668.195C167.135 668.195 166.559 668.062 166.045 667.795C165.537 667.528 165.104 667.154 164.746 666.672C164.388 666.19 164.114 665.624 163.925 664.973C163.737 664.315 163.642 663.602 163.642 662.834ZM165.996 662.629V662.834C165.996 663.316 166.038 663.765 166.123 664.182C166.214 664.598 166.354 664.966 166.543 665.285C166.731 665.598 166.976 665.845 167.275 666.027C167.581 666.203 167.946 666.291 168.369 666.291C168.903 666.291 169.342 666.174 169.687 665.939C170.032 665.705 170.302 665.389 170.498 664.992C170.699 664.589 170.836 664.139 170.908 663.645V661.877C170.869 661.493 170.787 661.135 170.664 660.803C170.546 660.471 170.387 660.181 170.185 659.934C169.983 659.68 169.733 659.484 169.433 659.348C169.14 659.204 168.792 659.133 168.388 659.133C167.959 659.133 167.594 659.224 167.295 659.406C166.995 659.589 166.748 659.839 166.552 660.158C166.364 660.477 166.224 660.848 166.132 661.271C166.041 661.695 165.996 662.147 165.996 662.629ZM178.261 657.434V668H175.898V657.434H178.261ZM175.741 654.66C175.741 654.302 175.859 654.006 176.093 653.771C176.334 653.531 176.666 653.41 177.089 653.41C177.506 653.41 177.835 653.531 178.075 653.771C178.316 654.006 178.437 654.302 178.437 654.66C178.437 655.012 178.316 655.305 178.075 655.539C177.835 655.773 177.506 655.891 177.089 655.891C176.666 655.891 176.334 655.773 176.093 655.539C175.859 655.305 175.741 655.012 175.741 654.66ZM180.79 662.834V662.609C180.79 661.848 180.901 661.141 181.122 660.49C181.343 659.833 181.662 659.263 182.079 658.781C182.502 658.293 183.016 657.915 183.622 657.648C184.234 657.375 184.924 657.238 185.692 657.238C186.467 657.238 187.157 657.375 187.762 657.648C188.374 657.915 188.892 658.293 189.315 658.781C189.738 659.263 190.061 659.833 190.282 660.49C190.503 661.141 190.614 661.848 190.614 662.609V662.834C190.614 663.596 190.503 664.302 190.282 664.953C190.061 665.604 189.738 666.174 189.315 666.662C188.892 667.144 188.378 667.521 187.772 667.795C187.167 668.062 186.48 668.195 185.712 668.195C184.937 668.195 184.244 668.062 183.632 667.795C183.026 667.521 182.512 667.144 182.089 666.662C181.665 666.174 181.343 665.604 181.122 664.953C180.901 664.302 180.79 663.596 180.79 662.834ZM183.143 662.609V662.834C183.143 663.309 183.192 663.758 183.29 664.182C183.387 664.605 183.54 664.976 183.749 665.295C183.957 665.614 184.224 665.865 184.55 666.047C184.875 666.229 185.262 666.32 185.712 666.32C186.148 666.32 186.526 666.229 186.845 666.047C187.17 665.865 187.437 665.614 187.645 665.295C187.854 664.976 188.007 664.605 188.104 664.182C188.208 663.758 188.261 663.309 188.261 662.834V662.609C188.261 662.141 188.208 661.698 188.104 661.281C188.007 660.858 187.85 660.484 187.636 660.158C187.427 659.833 187.16 659.579 186.835 659.396C186.516 659.208 186.135 659.113 185.692 659.113C185.249 659.113 184.865 659.208 184.54 659.396C184.221 659.579 183.957 659.833 183.749 660.158C183.54 660.484 183.387 660.858 183.29 661.281C183.192 661.698 183.143 662.141 183.143 662.609ZM193.084 666.828C193.084 666.464 193.208 666.158 193.455 665.91C193.703 665.656 194.038 665.529 194.461 665.529C194.891 665.529 195.226 665.656 195.467 665.91C195.715 666.158 195.838 666.464 195.838 666.828C195.838 667.193 195.715 667.499 195.467 667.746C195.226 667.993 194.891 668.117 194.461 668.117C194.038 668.117 193.703 667.993 193.455 667.746C193.208 667.499 193.084 667.193 193.084 666.828ZM203.27 666.32C203.654 666.32 203.999 666.245 204.305 666.096C204.617 665.939 204.868 665.725 205.057 665.451C205.252 665.178 205.359 664.862 205.379 664.504H207.596C207.583 665.188 207.381 665.809 206.99 666.369C206.6 666.929 206.082 667.375 205.438 667.707C204.793 668.033 204.08 668.195 203.299 668.195C202.492 668.195 201.788 668.059 201.189 667.785C200.59 667.505 200.092 667.121 199.695 666.633C199.298 666.145 198.999 665.581 198.797 664.943C198.602 664.305 198.504 663.622 198.504 662.893V662.551C198.504 661.822 198.602 661.138 198.797 660.5C198.999 659.855 199.298 659.289 199.695 658.801C200.092 658.312 200.59 657.932 201.189 657.658C201.788 657.378 202.488 657.238 203.289 657.238C204.135 657.238 204.878 657.408 205.516 657.746C206.154 658.078 206.655 658.544 207.02 659.143C207.391 659.735 207.583 660.425 207.596 661.213H205.379C205.359 660.822 205.262 660.471 205.086 660.158C204.917 659.839 204.676 659.585 204.363 659.396C204.057 659.208 203.689 659.113 203.26 659.113C202.785 659.113 202.391 659.211 202.078 659.406C201.766 659.595 201.521 659.855 201.346 660.188C201.17 660.513 201.043 660.881 200.965 661.291C200.893 661.695 200.857 662.115 200.857 662.551V662.893C200.857 663.329 200.893 663.752 200.965 664.162C201.036 664.572 201.16 664.94 201.336 665.266C201.518 665.585 201.766 665.842 202.078 666.037C202.391 666.226 202.788 666.32 203.27 666.32ZM209.353 662.834V662.609C209.353 661.848 209.464 661.141 209.685 660.49C209.907 659.833 210.226 659.263 210.642 658.781C211.065 658.293 211.58 657.915 212.185 657.648C212.797 657.375 213.487 657.238 214.255 657.238C215.03 657.238 215.72 657.375 216.326 657.648C216.938 657.915 217.455 658.293 217.879 658.781C218.302 659.263 218.624 659.833 218.845 660.49C219.067 661.141 219.177 661.848 219.177 662.609V662.834C219.177 663.596 219.067 664.302 218.845 664.953C218.624 665.604 218.302 666.174 217.879 666.662C217.455 667.144 216.941 667.521 216.336 667.795C215.73 668.062 215.043 668.195 214.275 668.195C213.5 668.195 212.807 668.062 212.195 667.795C211.589 667.521 211.075 667.144 210.652 666.662C210.229 666.174 209.907 665.604 209.685 664.953C209.464 664.302 209.353 663.596 209.353 662.834ZM211.707 662.609V662.834C211.707 663.309 211.755 663.758 211.853 664.182C211.951 664.605 212.104 664.976 212.312 665.295C212.52 665.614 212.787 665.865 213.113 666.047C213.438 666.229 213.826 666.32 214.275 666.32C214.711 666.32 215.089 666.229 215.408 666.047C215.733 665.865 216 665.614 216.209 665.295C216.417 664.976 216.57 664.605 216.668 664.182C216.772 663.758 216.824 663.309 216.824 662.834V662.609C216.824 662.141 216.772 661.698 216.668 661.281C216.57 660.858 216.414 660.484 216.199 660.158C215.99 659.833 215.724 659.579 215.398 659.396C215.079 659.208 214.698 659.113 214.255 659.113C213.813 659.113 213.429 659.208 213.103 659.396C212.784 659.579 212.52 659.833 212.312 660.158C212.104 660.484 211.951 660.858 211.853 661.281C211.755 661.698 211.707 662.141 211.707 662.609ZM223.904 659.582V668H221.55V657.434H223.767L223.904 659.582ZM223.523 662.326L222.722 662.316C222.722 661.587 222.813 660.913 222.995 660.295C223.178 659.676 223.445 659.139 223.796 658.684C224.148 658.221 224.584 657.867 225.105 657.619C225.632 657.365 226.241 657.238 226.931 657.238C227.413 657.238 227.852 657.31 228.249 657.453C228.653 657.59 229.001 657.808 229.294 658.107C229.594 658.407 229.821 658.791 229.978 659.26C230.14 659.729 230.222 660.295 230.222 660.959V668H227.868V661.164C227.868 660.65 227.79 660.246 227.634 659.953C227.484 659.66 227.266 659.452 226.98 659.328C226.7 659.198 226.364 659.133 225.974 659.133C225.531 659.133 225.154 659.217 224.841 659.387C224.535 659.556 224.284 659.787 224.089 660.08C223.894 660.373 223.751 660.712 223.659 661.096C223.568 661.48 223.523 661.89 223.523 662.326ZM230.075 661.701L228.972 661.945C228.972 661.307 229.06 660.705 229.236 660.139C229.418 659.566 229.682 659.064 230.027 658.635C230.378 658.199 230.811 657.857 231.325 657.609C231.84 657.362 232.429 657.238 233.093 657.238C233.633 657.238 234.115 657.313 234.538 657.463C234.968 657.606 235.333 657.834 235.632 658.146C235.932 658.459 236.159 658.866 236.316 659.367C236.472 659.862 236.55 660.461 236.55 661.164V668H234.187V661.154C234.187 660.62 234.109 660.207 233.952 659.914C233.803 659.621 233.588 659.419 233.308 659.309C233.028 659.191 232.693 659.133 232.302 659.133C231.937 659.133 231.615 659.201 231.335 659.338C231.062 659.468 230.831 659.654 230.642 659.895C230.453 660.129 230.31 660.399 230.212 660.705C230.121 661.011 230.075 661.343 230.075 661.701Z" fill="#434455"/>
<path d="M61.6094 110.303C61.6094 109.846 61.5391 109.436 61.3984 109.072C61.2695 108.697 61.0234 108.357 60.6602 108.053C60.2969 107.736 59.7871 107.426 59.1309 107.121C58.4746 106.816 57.625 106.5 56.582 106.172C55.4219 105.797 54.3203 105.375 53.2773 104.906C52.2461 104.438 51.332 103.893 50.5352 103.271C49.75 102.639 49.1289 101.906 48.6719 101.074C48.2266 100.242 48.0039 99.2754 48.0039 98.1738C48.0039 97.1074 48.2383 96.1406 48.707 95.2734C49.1758 94.3945 49.832 93.6445 50.6758 93.0234C51.5195 92.3906 52.5156 91.9043 53.6641 91.5645C54.8242 91.2246 56.0957 91.0547 57.4785 91.0547C59.3652 91.0547 61.0117 91.3945 62.418 92.0742C63.8242 92.7539 64.9141 93.6855 65.6875 94.8691C66.4727 96.0527 66.8652 97.4062 66.8652 98.9297H61.627C61.627 98.1797 61.4688 97.5234 61.1523 96.9609C60.8477 96.3867 60.3789 95.9355 59.7461 95.6074C59.125 95.2793 58.3398 95.1152 57.3906 95.1152C56.4766 95.1152 55.7148 95.2559 55.1055 95.5371C54.4961 95.8066 54.0391 96.1758 53.7344 96.6445C53.4297 97.1016 53.2773 97.6172 53.2773 98.1914C53.2773 98.625 53.3828 99.0176 53.5938 99.3691C53.8164 99.7207 54.1445 100.049 54.5781 100.354C55.0117 100.658 55.5449 100.945 56.1777 101.215C56.8105 101.484 57.543 101.748 58.375 102.006C59.7695 102.428 60.9941 102.902 62.0488 103.43C63.1152 103.957 64.0059 104.549 64.7207 105.205C65.4355 105.861 65.9746 106.605 66.3379 107.438C66.7012 108.27 66.8828 109.213 66.8828 110.268C66.8828 111.381 66.666 112.377 66.2324 113.256C65.7988 114.135 65.1719 114.879 64.3516 115.488C63.5312 116.098 62.5527 116.561 61.416 116.877C60.2793 117.193 59.0078 117.352 57.6016 117.352C56.3359 117.352 55.0879 117.188 53.8574 116.859C52.627 116.52 51.5078 116.01 50.5 115.33C49.5039 114.65 48.707 113.783 48.1094 112.729C47.5117 111.674 47.2129 110.426 47.2129 108.984H52.5039C52.5039 109.781 52.627 110.455 52.873 111.006C53.1191 111.557 53.4648 112.002 53.9102 112.342C54.3672 112.682 54.9062 112.928 55.5273 113.08C56.1602 113.232 56.8516 113.309 57.6016 113.309C58.5156 113.309 59.2656 113.18 59.8516 112.922C60.4492 112.664 60.8887 112.307 61.1699 111.85C61.4629 111.393 61.6094 110.877 61.6094 110.303ZM80.1887 97.9805V101.566H69.1145V97.9805H80.1887ZM71.8567 93.2871H76.9192V111.27C76.9192 111.82 76.9895 112.242 77.1302 112.535C77.2825 112.828 77.5052 113.033 77.7981 113.15C78.0911 113.256 78.4602 113.309 78.9055 113.309C79.222 113.309 79.5032 113.297 79.7493 113.273C80.0071 113.238 80.2239 113.203 80.3997 113.168L80.4173 116.895C79.9837 117.035 79.5149 117.146 79.011 117.229C78.5071 117.311 77.9505 117.352 77.3411 117.352C76.2278 117.352 75.2552 117.17 74.4231 116.807C73.6028 116.432 72.97 115.834 72.5247 115.014C72.0794 114.193 71.8567 113.115 71.8567 111.779V93.2871ZM95.0416 112.447V97.9805H100.104V117H95.3404L95.0416 112.447ZM95.6041 108.545L97.0982 108.51C97.0982 109.775 96.9517 110.953 96.6587 112.043C96.3658 113.121 95.9263 114.059 95.3404 114.855C94.7545 115.641 94.0162 116.256 93.1255 116.701C92.2349 117.135 91.1861 117.352 89.9791 117.352C89.0533 117.352 88.1978 117.223 87.4127 116.965C86.6392 116.695 85.9712 116.279 85.4087 115.717C84.858 115.143 84.4244 114.41 84.108 113.52C83.8033 112.617 83.6509 111.533 83.6509 110.268V97.9805H88.7134V110.303C88.7134 110.865 88.7779 111.34 88.9068 111.727C89.0474 112.113 89.2408 112.43 89.4869 112.676C89.733 112.922 90.0201 113.098 90.3482 113.203C90.688 113.309 91.063 113.361 91.4732 113.361C92.5162 113.361 93.3365 113.15 93.9341 112.729C94.5435 112.307 94.9712 111.732 95.2173 111.006C95.4752 110.268 95.6041 109.447 95.6041 108.545ZM115.924 112.852V90H121.021V117H116.433L115.924 112.852ZM103.9 107.719V107.35C103.9 105.896 104.064 104.578 104.392 103.395C104.721 102.199 105.201 101.174 105.834 100.318C106.467 99.4629 107.246 98.8008 108.172 98.332C109.097 97.8633 110.152 97.6289 111.336 97.6289C112.449 97.6289 113.422 97.8633 114.254 98.332C115.097 98.8008 115.812 99.4688 116.398 100.336C116.996 101.191 117.476 102.205 117.84 103.377C118.203 104.537 118.467 105.809 118.631 107.191V108C118.467 109.324 118.203 110.555 117.84 111.691C117.476 112.828 116.996 113.824 116.398 114.68C115.812 115.523 115.097 116.18 114.254 116.648C113.41 117.117 112.426 117.352 111.301 117.352C110.117 117.352 109.062 117.111 108.137 116.631C107.222 116.15 106.449 115.477 105.816 114.609C105.195 113.742 104.721 112.723 104.392 111.551C104.064 110.379 103.9 109.102 103.9 107.719ZM108.963 107.35V107.719C108.963 108.504 109.021 109.236 109.139 109.916C109.267 110.596 109.472 111.199 109.754 111.727C110.047 112.242 110.422 112.646 110.879 112.939C111.347 113.221 111.916 113.361 112.584 113.361C113.451 113.361 114.166 113.168 114.728 112.781C115.291 112.383 115.719 111.838 116.012 111.146C116.316 110.455 116.492 109.658 116.539 108.756V106.453C116.504 105.715 116.398 105.053 116.222 104.467C116.058 103.869 115.812 103.359 115.484 102.938C115.168 102.516 114.769 102.188 114.289 101.953C113.82 101.719 113.264 101.602 112.619 101.602C111.963 101.602 111.4 101.754 110.931 102.059C110.463 102.352 110.082 102.756 109.789 103.271C109.508 103.787 109.297 104.396 109.156 105.1C109.027 105.791 108.963 106.541 108.963 107.35ZM131.04 97.9805V117H125.96V97.9805H131.04ZM125.644 93.0234C125.644 92.2852 125.901 91.6758 126.417 91.1953C126.933 90.7148 127.624 90.4746 128.491 90.4746C129.347 90.4746 130.032 90.7148 130.548 91.1953C131.075 91.6758 131.339 92.2852 131.339 93.0234C131.339 93.7617 131.075 94.3711 130.548 94.8516C130.032 95.332 129.347 95.5723 128.491 95.5723C127.624 95.5723 126.933 95.332 126.417 94.8516C125.901 94.3711 125.644 93.7617 125.644 93.0234ZM135.135 107.684V107.314C135.135 105.92 135.334 104.637 135.733 103.465C136.131 102.281 136.711 101.256 137.473 100.389C138.235 99.5215 139.172 98.8477 140.286 98.3672C141.399 97.875 142.676 97.6289 144.118 97.6289C145.559 97.6289 146.842 97.875 147.967 98.3672C149.092 98.8477 150.036 99.5215 150.797 100.389C151.571 101.256 152.157 102.281 152.555 103.465C152.954 104.637 153.153 105.92 153.153 107.314V107.684C153.153 109.066 152.954 110.35 152.555 111.533C152.157 112.705 151.571 113.73 150.797 114.609C150.036 115.477 149.098 116.15 147.985 116.631C146.871 117.111 145.594 117.352 144.153 117.352C142.711 117.352 141.428 117.111 140.303 116.631C139.19 116.15 138.246 115.477 137.473 114.609C136.711 113.73 136.131 112.705 135.733 111.533C135.334 110.35 135.135 109.066 135.135 107.684ZM140.198 107.314V107.684C140.198 108.48 140.268 109.225 140.409 109.916C140.549 110.607 140.772 111.217 141.077 111.744C141.393 112.26 141.803 112.664 142.307 112.957C142.811 113.25 143.426 113.396 144.153 113.396C144.856 113.396 145.459 113.25 145.963 112.957C146.467 112.664 146.871 112.26 147.176 111.744C147.481 111.217 147.704 110.607 147.844 109.916C147.996 109.225 148.073 108.48 148.073 107.684V107.314C148.073 106.541 147.996 105.814 147.844 105.135C147.704 104.443 147.475 103.834 147.159 103.307C146.854 102.768 146.45 102.346 145.946 102.041C145.442 101.736 144.832 101.584 144.118 101.584C143.403 101.584 142.793 101.736 142.289 102.041C141.797 102.346 141.393 102.768 141.077 103.307C140.772 103.834 140.549 104.443 140.409 105.135C140.268 105.814 140.198 106.541 140.198 107.314Z" fill="#404BBF"/>
<path d="M58.252 187.877H51.7305V183.764H58.252C59.2598 183.764 60.0801 183.6 60.7129 183.271C61.3457 182.932 61.8086 182.463 62.1016 181.865C62.3945 181.268 62.541 180.594 62.541 179.844C62.541 179.082 62.3945 178.373 62.1016 177.717C61.8086 177.061 61.3457 176.533 60.7129 176.135C60.0801 175.736 59.2598 175.537 58.252 175.537H53.5586V197H48.2852V171.406H58.252C60.2559 171.406 61.9727 171.77 63.4023 172.496C64.8438 173.211 65.9453 174.201 66.707 175.467C67.4688 176.732 67.8496 178.18 67.8496 179.809C67.8496 181.461 67.4688 182.891 66.707 184.098C65.9453 185.305 64.8438 186.236 63.4023 186.893C61.9727 187.549 60.2559 187.877 58.252 187.877ZM70.8372 187.684V187.314C70.8372 185.92 71.0364 184.637 71.4348 183.465C71.8333 182.281 72.4134 181.256 73.1751 180.389C73.9368 179.521 74.8743 178.848 75.9876 178.367C77.1009 177.875 78.3782 177.629 79.8196 177.629C81.261 177.629 82.5442 177.875 83.6692 178.367C84.7942 178.848 85.7376 179.521 86.4993 180.389C87.2727 181.256 87.8587 182.281 88.2571 183.465C88.6555 184.637 88.8548 185.92 88.8548 187.314V187.684C88.8548 189.066 88.6555 190.35 88.2571 191.533C87.8587 192.705 87.2727 193.73 86.4993 194.609C85.7376 195.477 84.8001 196.15 83.6868 196.631C82.5735 197.111 81.2962 197.352 79.8548 197.352C78.4134 197.352 77.1302 197.111 76.0052 196.631C74.8919 196.15 73.9485 195.477 73.1751 194.609C72.4134 193.73 71.8333 192.705 71.4348 191.533C71.0364 190.35 70.8372 189.066 70.8372 187.684ZM75.8997 187.314V187.684C75.8997 188.48 75.97 189.225 76.1106 189.916C76.2512 190.607 76.4739 191.217 76.7786 191.744C77.095 192.26 77.5052 192.664 78.0091 192.957C78.513 193.25 79.1282 193.396 79.8548 193.396C80.5579 193.396 81.1614 193.25 81.6653 192.957C82.1692 192.664 82.5735 192.26 82.8782 191.744C83.1829 191.217 83.4055 190.607 83.5462 189.916C83.6985 189.225 83.7747 188.48 83.7747 187.684V187.314C83.7747 186.541 83.6985 185.814 83.5462 185.135C83.4055 184.443 83.177 183.834 82.8606 183.307C82.5559 182.768 82.1516 182.346 81.6477 182.041C81.1438 181.736 80.5345 181.584 79.8196 181.584C79.1048 181.584 78.4954 181.736 77.9915 182.041C77.4993 182.346 77.095 182.768 76.7786 183.307C76.4739 183.834 76.2512 184.443 76.1106 185.135C75.97 185.814 75.8997 186.541 75.8997 187.314ZM97.7486 182.129V197H92.6861V177.98H97.4498L97.7486 182.129ZM103.479 177.857L103.391 182.551C103.145 182.516 102.846 182.486 102.495 182.463C102.155 182.428 101.844 182.41 101.563 182.41C100.848 182.41 100.227 182.504 99.6998 182.691C99.1841 182.867 98.7505 183.131 98.399 183.482C98.0591 183.834 97.8013 184.262 97.6255 184.766C97.4615 185.27 97.3677 185.844 97.3443 186.488L96.3248 186.172C96.3248 184.941 96.4478 183.811 96.6939 182.779C96.94 181.736 97.2974 180.828 97.7662 180.055C98.2466 179.281 98.8326 178.684 99.524 178.262C100.215 177.84 101.006 177.629 101.897 177.629C102.178 177.629 102.465 177.652 102.758 177.699C103.051 177.734 103.292 177.787 103.479 177.857ZM116.785 177.98V181.566H105.711V177.98H116.785ZM108.453 173.287H113.515V191.27C113.515 191.82 113.586 192.242 113.726 192.535C113.879 192.828 114.101 193.033 114.394 193.15C114.687 193.256 115.056 193.309 115.502 193.309C115.818 193.309 116.099 193.297 116.346 193.273C116.603 193.238 116.82 193.203 116.996 193.168L117.014 196.895C116.58 197.035 116.111 197.146 115.607 197.229C115.103 197.311 114.547 197.352 113.937 197.352C112.824 197.352 111.851 197.17 111.019 196.807C110.199 196.432 109.566 195.834 109.121 195.014C108.676 194.193 108.453 193.115 108.453 191.779V173.287ZM126.839 197H121.741V176.293C121.741 174.852 122.023 173.639 122.585 172.654C123.159 171.658 123.962 170.908 124.993 170.404C126.036 169.889 127.273 169.631 128.702 169.631C129.171 169.631 129.622 169.666 130.056 169.736C130.489 169.795 130.911 169.871 131.321 169.965L131.269 173.779C131.046 173.721 130.812 173.68 130.566 173.656C130.319 173.633 130.032 173.621 129.704 173.621C129.095 173.621 128.573 173.727 128.14 173.938C127.718 174.137 127.396 174.436 127.173 174.834C126.95 175.232 126.839 175.719 126.839 176.293V197ZM130.636 177.98V181.566H118.911V177.98H130.636ZM133.202 187.684V187.314C133.202 185.92 133.401 184.637 133.799 183.465C134.198 182.281 134.778 181.256 135.539 180.389C136.301 179.521 137.239 178.848 138.352 178.367C139.465 177.875 140.743 177.629 142.184 177.629C143.625 177.629 144.909 177.875 146.034 178.367C147.159 178.848 148.102 179.521 148.864 180.389C149.637 181.256 150.223 182.281 150.621 183.465C151.02 184.637 151.219 185.92 151.219 187.314V187.684C151.219 189.066 151.02 190.35 150.621 191.533C150.223 192.705 149.637 193.73 148.864 194.609C148.102 195.477 147.164 196.15 146.051 196.631C144.938 197.111 143.661 197.352 142.219 197.352C140.778 197.352 139.495 197.111 138.37 196.631C137.256 196.15 136.313 195.477 135.539 194.609C134.778 193.73 134.198 192.705 133.799 191.533C133.401 190.35 133.202 189.066 133.202 187.684ZM138.264 187.314V187.684C138.264 188.48 138.334 189.225 138.475 189.916C138.616 190.607 138.838 191.217 139.143 191.744C139.459 192.26 139.87 192.664 140.373 192.957C140.877 193.25 141.493 193.396 142.219 193.396C142.922 193.396 143.526 193.25 144.03 192.957C144.534 192.664 144.938 192.26 145.243 191.744C145.547 191.217 145.77 190.607 145.911 189.916C146.063 189.225 146.139 188.48 146.139 187.684V187.314C146.139 186.541 146.063 185.814 145.911 185.135C145.77 184.443 145.541 183.834 145.225 183.307C144.92 182.768 144.516 182.346 144.012 182.041C143.508 181.736 142.899 181.584 142.184 181.584C141.469 181.584 140.86 181.736 140.356 182.041C139.864 182.346 139.459 182.768 139.143 183.307C138.838 183.834 138.616 184.443 138.475 185.135C138.334 185.814 138.264 186.541 138.264 187.314ZM160.394 170V197H155.314V170H160.394ZM170.642 177.98V197H165.561V177.98H170.642ZM165.245 173.023C165.245 172.285 165.503 171.676 166.019 171.195C166.534 170.715 167.226 170.475 168.093 170.475C168.948 170.475 169.634 170.715 170.149 171.195C170.677 171.676 170.94 172.285 170.94 173.023C170.94 173.762 170.677 174.371 170.149 174.852C169.634 175.332 168.948 175.572 168.093 175.572C167.226 175.572 166.534 175.332 166.019 174.852C165.503 174.371 165.245 173.762 165.245 173.023ZM174.737 187.684V187.314C174.737 185.92 174.936 184.637 175.334 183.465C175.733 182.281 176.313 181.256 177.074 180.389C177.836 179.521 178.774 178.848 179.887 178.367C181 177.875 182.278 177.629 183.719 177.629C185.16 177.629 186.444 177.875 187.569 178.367C188.694 178.848 189.637 179.521 190.399 180.389C191.172 181.256 191.758 182.281 192.156 183.465C192.555 184.637 192.754 185.92 192.754 187.314V187.684C192.754 189.066 192.555 190.35 192.156 191.533C191.758 192.705 191.172 193.73 190.399 194.609C189.637 195.477 188.699 196.15 187.586 196.631C186.473 197.111 185.196 197.352 183.754 197.352C182.313 197.352 181.03 197.111 179.905 196.631C178.791 196.15 177.848 195.477 177.074 194.609C176.313 193.73 175.733 192.705 175.334 191.533C174.936 190.35 174.737 189.066 174.737 187.684ZM179.799 187.314V187.684C179.799 188.48 179.869 189.225 180.01 189.916C180.151 190.607 180.373 191.217 180.678 191.744C180.994 192.26 181.405 192.664 181.908 192.957C182.412 193.25 183.028 193.396 183.754 193.396C184.457 193.396 185.061 193.25 185.565 192.957C186.069 192.664 186.473 192.26 186.778 191.744C187.082 191.217 187.305 190.607 187.446 189.916C187.598 189.225 187.674 188.48 187.674 187.684V187.314C187.674 186.541 187.598 185.814 187.446 185.135C187.305 184.443 187.076 183.834 186.76 183.307C186.455 182.768 186.051 182.346 185.547 182.041C185.043 181.736 184.434 181.584 183.719 181.584C183.004 181.584 182.395 181.736 181.891 182.041C181.399 182.346 180.994 182.768 180.678 183.307C180.373 183.834 180.151 184.443 180.01 185.135C179.869 185.814 179.799 186.541 179.799 187.314Z" fill="#2E2F42"/>
<path d="M63.1211 268.51H68.377C68.2715 270.232 67.7969 271.762 66.9531 273.098C66.1211 274.434 64.9551 275.477 63.4551 276.227C61.9668 276.977 60.1738 277.352 58.0762 277.352C56.4355 277.352 54.9648 277.07 53.6641 276.508C52.3633 275.934 51.25 275.113 50.3242 274.047C49.4102 272.98 48.7129 271.691 48.2324 270.18C47.752 268.668 47.5117 266.975 47.5117 265.1V263.324C47.5117 261.449 47.7578 259.756 48.25 258.244C48.7539 256.721 49.4688 255.426 50.3945 254.359C51.332 253.293 52.4512 252.473 53.752 251.898C55.0527 251.324 56.5059 251.037 58.1113 251.037C60.2441 251.037 62.043 251.424 63.5078 252.197C64.9844 252.971 66.127 254.037 66.9355 255.396C67.7559 256.756 68.248 258.303 68.4121 260.037H63.1387C63.0801 259.006 62.875 258.133 62.5234 257.418C62.1719 256.691 61.6387 256.146 60.9238 255.783C60.2207 255.408 59.2832 255.221 58.1113 255.221C57.2324 255.221 56.4648 255.385 55.8086 255.713C55.1523 256.041 54.6016 256.539 54.1562 257.207C53.7109 257.875 53.377 258.719 53.1543 259.738C52.9434 260.746 52.8379 261.93 52.8379 263.289V265.1C52.8379 266.424 52.9375 267.59 53.1367 268.598C53.3359 269.594 53.6406 270.438 54.0508 271.129C54.4727 271.809 55.0117 272.324 55.668 272.676C56.3359 273.016 57.1387 273.186 58.0762 273.186C59.1777 273.186 60.0859 273.01 60.8008 272.658C61.5156 272.307 62.0605 271.785 62.4355 271.094C62.8223 270.402 63.0508 269.541 63.1211 268.51ZM71.4348 267.684V267.314C71.4348 265.92 71.6341 264.637 72.0325 263.465C72.4309 262.281 73.011 261.256 73.7727 260.389C74.5345 259.521 75.472 258.848 76.5852 258.367C77.6985 257.875 78.9759 257.629 80.4173 257.629C81.8587 257.629 83.1419 257.875 84.2669 258.367C85.3919 258.848 86.3352 259.521 87.097 260.389C87.8704 261.256 88.4563 262.281 88.8548 263.465C89.2532 264.637 89.4524 265.92 89.4524 267.314V267.684C89.4524 269.066 89.2532 270.35 88.8548 271.533C88.4563 272.705 87.8704 273.73 87.097 274.609C86.3352 275.477 85.3977 276.15 84.2845 276.631C83.1712 277.111 81.8938 277.352 80.4524 277.352C79.011 277.352 77.7278 277.111 76.6028 276.631C75.4895 276.15 74.5462 275.477 73.7727 274.609C73.011 273.73 72.4309 272.705 72.0325 271.533C71.6341 270.35 71.4348 269.066 71.4348 267.684ZM76.4973 267.314V267.684C76.4973 268.48 76.5677 269.225 76.7083 269.916C76.8489 270.607 77.0716 271.217 77.3762 271.744C77.6927 272.26 78.1028 272.664 78.6067 272.957C79.1106 273.25 79.7259 273.396 80.4524 273.396C81.1555 273.396 81.7591 273.25 82.263 272.957C82.7669 272.664 83.1712 272.26 83.4759 271.744C83.7805 271.217 84.0032 270.607 84.1438 269.916C84.2962 269.225 84.3723 268.48 84.3723 267.684V267.314C84.3723 266.541 84.2962 265.814 84.1438 265.135C84.0032 264.443 83.7747 263.834 83.4583 263.307C83.1536 262.768 82.7493 262.346 82.2454 262.041C81.7415 261.736 81.1321 261.584 80.4173 261.584C79.7024 261.584 79.093 261.736 78.5891 262.041C78.097 262.346 77.6927 262.768 77.3762 263.307C77.0716 263.834 76.8489 264.443 76.7083 265.135C76.5677 265.814 76.4973 266.541 76.4973 267.314ZM98.2408 262.041V277H93.1783V257.98H97.9244L98.2408 262.041ZM97.5025 266.822H96.1314C96.1314 265.416 96.313 264.15 96.6763 263.025C97.0396 261.889 97.5494 260.922 98.2056 260.125C98.8619 259.316 99.6412 258.701 100.544 258.279C101.458 257.846 102.477 257.629 103.602 257.629C104.493 257.629 105.307 257.758 106.045 258.016C106.784 258.273 107.417 258.684 107.944 259.246C108.483 259.809 108.893 260.553 109.174 261.479C109.467 262.404 109.614 263.535 109.614 264.871V277H104.516V264.854C104.516 264.01 104.399 263.354 104.165 262.885C103.93 262.416 103.585 262.088 103.127 261.9C102.682 261.701 102.131 261.602 101.475 261.602C100.795 261.602 100.204 261.736 99.6998 262.006C99.2076 262.275 98.7974 262.65 98.4693 263.131C98.1529 263.6 97.9127 264.15 97.7486 264.783C97.5845 265.416 97.5025 266.096 97.5025 266.822ZM123.5 257.98V261.566H112.426V257.98H123.5ZM115.168 253.287H120.23V271.27C120.23 271.82 120.301 272.242 120.441 272.535C120.594 272.828 120.816 273.033 121.109 273.15C121.402 273.256 121.771 273.309 122.217 273.309C122.533 273.309 122.814 273.297 123.06 273.273C123.318 273.238 123.535 273.203 123.711 273.168L123.728 276.895C123.295 277.035 122.826 277.146 122.322 277.229C121.818 277.311 121.262 277.352 120.652 277.352C119.539 277.352 118.566 277.17 117.734 276.807C116.914 276.432 116.281 275.834 115.836 275.014C115.39 274.193 115.168 273.115 115.168 271.779V253.287ZM137.368 272.711V264.238C137.368 263.629 137.269 263.107 137.069 262.674C136.87 262.229 136.56 261.883 136.138 261.637C135.728 261.391 135.194 261.268 134.538 261.268C133.976 261.268 133.489 261.367 133.079 261.566C132.669 261.754 132.353 262.029 132.13 262.393C131.907 262.744 131.796 263.16 131.796 263.641H126.734C126.734 262.832 126.921 262.064 127.296 261.338C127.671 260.611 128.216 259.973 128.931 259.422C129.646 258.859 130.495 258.42 131.48 258.104C132.476 257.787 133.589 257.629 134.819 257.629C136.296 257.629 137.609 257.875 138.757 258.367C139.905 258.859 140.808 259.598 141.464 260.582C142.132 261.566 142.466 262.797 142.466 264.273V272.412C142.466 273.455 142.53 274.311 142.659 274.979C142.788 275.635 142.976 276.209 143.222 276.701V277H138.107C137.86 276.484 137.673 275.84 137.544 275.066C137.427 274.281 137.368 273.496 137.368 272.711ZM138.036 265.416L138.071 268.281H135.241C134.573 268.281 133.993 268.357 133.501 268.51C133.009 268.662 132.605 268.879 132.288 269.16C131.972 269.43 131.737 269.746 131.585 270.109C131.444 270.473 131.374 270.871 131.374 271.305C131.374 271.738 131.474 272.131 131.673 272.482C131.872 272.822 132.159 273.092 132.534 273.291C132.909 273.479 133.349 273.572 133.853 273.572C134.614 273.572 135.276 273.42 135.839 273.115C136.401 272.811 136.835 272.436 137.14 271.99C137.456 271.545 137.62 271.123 137.632 270.725L138.968 272.869C138.78 273.35 138.523 273.848 138.194 274.363C137.878 274.879 137.474 275.365 136.982 275.822C136.489 276.268 135.898 276.637 135.206 276.93C134.515 277.211 133.694 277.352 132.745 277.352C131.538 277.352 130.442 277.111 129.458 276.631C128.485 276.139 127.712 275.465 127.138 274.609C126.575 273.742 126.294 272.758 126.294 271.656C126.294 270.66 126.482 269.775 126.857 269.002C127.232 268.229 127.782 267.578 128.509 267.051C129.247 266.512 130.167 266.107 131.269 265.838C132.37 265.557 133.648 265.416 135.101 265.416H138.036ZM154.946 273.396C155.567 273.396 156.118 273.279 156.598 273.045C157.079 272.799 157.454 272.459 157.723 272.025C158.004 271.58 158.151 271.059 158.162 270.461H162.926C162.914 271.797 162.557 272.986 161.854 274.029C161.151 275.061 160.207 275.875 159.024 276.473C157.84 277.059 156.516 277.352 155.051 277.352C153.575 277.352 152.286 277.105 151.184 276.613C150.094 276.121 149.186 275.441 148.459 274.574C147.733 273.695 147.188 272.676 146.825 271.516C146.461 270.344 146.28 269.09 146.28 267.754V267.244C146.28 265.896 146.461 264.643 146.825 263.482C147.188 262.311 147.733 261.291 148.459 260.424C149.186 259.545 150.094 258.859 151.184 258.367C152.274 257.875 153.551 257.629 155.016 257.629C156.575 257.629 157.94 257.928 159.112 258.525C160.295 259.123 161.221 259.979 161.889 261.092C162.569 262.193 162.914 263.5 162.926 265.012H158.162C158.151 264.379 158.016 263.805 157.758 263.289C157.512 262.773 157.149 262.363 156.668 262.059C156.2 261.742 155.62 261.584 154.928 261.584C154.19 261.584 153.586 261.742 153.118 262.059C152.649 262.363 152.286 262.785 152.028 263.324C151.77 263.852 151.588 264.455 151.483 265.135C151.389 265.803 151.342 266.506 151.342 267.244V267.754C151.342 268.492 151.389 269.201 151.483 269.881C151.577 270.561 151.752 271.164 152.01 271.691C152.28 272.219 152.649 272.635 153.118 272.939C153.586 273.244 154.196 273.396 154.946 273.396ZM175.898 257.98V261.566H164.824V257.98H175.898ZM167.566 253.287H172.629V271.27C172.629 271.82 172.699 272.242 172.84 272.535C172.992 272.828 173.215 273.033 173.507 273.15C173.8 273.256 174.17 273.309 174.615 273.309C174.931 273.309 175.213 273.297 175.459 273.273C175.716 273.238 175.933 273.203 176.109 273.168L176.127 276.895C175.693 277.035 175.224 277.146 174.72 277.229C174.216 277.311 173.66 277.352 173.05 277.352C171.937 277.352 170.965 277.17 170.132 276.807C169.312 276.432 168.679 275.834 168.234 275.014C167.789 274.193 167.566 273.115 167.566 271.779V253.287ZM189.784 271.744C189.784 271.381 189.679 271.053 189.468 270.76C189.257 270.467 188.864 270.197 188.29 269.951C187.727 269.693 186.913 269.459 185.847 269.248C184.886 269.037 183.989 268.773 183.157 268.457C182.337 268.129 181.622 267.736 181.013 267.279C180.415 266.822 179.946 266.283 179.606 265.662C179.267 265.029 179.097 264.309 179.097 263.5C179.097 262.703 179.267 261.953 179.606 261.25C179.958 260.547 180.456 259.926 181.101 259.387C181.757 258.836 182.554 258.408 183.491 258.104C184.44 257.787 185.507 257.629 186.69 257.629C188.343 257.629 189.761 257.893 190.944 258.42C192.14 258.947 193.054 259.674 193.686 260.6C194.331 261.514 194.653 262.557 194.653 263.729H189.591C189.591 263.236 189.485 262.797 189.274 262.41C189.075 262.012 188.759 261.701 188.325 261.479C187.903 261.244 187.352 261.127 186.673 261.127C186.11 261.127 185.624 261.227 185.214 261.426C184.804 261.613 184.487 261.871 184.265 262.199C184.054 262.516 183.948 262.867 183.948 263.254C183.948 263.547 184.007 263.811 184.124 264.045C184.253 264.268 184.458 264.473 184.739 264.66C185.02 264.848 185.384 265.023 185.829 265.188C186.286 265.34 186.849 265.48 187.517 265.609C188.888 265.891 190.112 266.26 191.19 266.717C192.269 267.162 193.124 267.771 193.757 268.545C194.39 269.307 194.706 270.309 194.706 271.551C194.706 272.395 194.519 273.168 194.144 273.871C193.769 274.574 193.229 275.189 192.526 275.717C191.823 276.232 190.979 276.637 189.995 276.93C189.022 277.211 187.927 277.352 186.708 277.352C184.938 277.352 183.438 277.035 182.208 276.402C180.989 275.77 180.063 274.967 179.431 273.994C178.81 273.01 178.499 272.002 178.499 270.971H183.298C183.321 271.662 183.497 272.219 183.825 272.641C184.165 273.062 184.593 273.367 185.108 273.555C185.636 273.742 186.204 273.836 186.813 273.836C187.47 273.836 188.015 273.748 188.448 273.572C188.882 273.385 189.21 273.139 189.433 272.834C189.667 272.518 189.784 272.154 189.784 271.744Z" fill="#2E2F42"/>
<circle opacity="0.1" cx="398" cy="41" r="11.5" fill="#E7E9FC" stroke="#2E2F42"/>
<g clip-path="url(#clip4_297053_2137)">
<path d="M402 37.8057L401.194 37L398 40.1943L394.806 37L394 37.8057L397.194 41L394 44.1943L394.806 45L398 41.8057L401.194 45L402 44.1943L398.806 41L402 37.8057Z" fill="#2E2F42"/>
</g>
<defs>
<filter id="filter0_ddd_297053_2137" x="0" y="0" width="440" height="808" filterUnits="userSpaceOnUse" color-interpolation-filters="sRGB">
<feFlood flood-opacity="0" result="BackgroundImageFix"/>
<feColorMatrix in="SourceAlpha" type="matrix" values="0 0 0 0 0 0 0 0 0 0 0 0 0 0 0 0 0 0 127 0" result="hardAlpha"/>
<feOffset dy="1"/>
<feGaussianBlur stdDeviation="3"/>
<feComposite in2="hardAlpha" operator="out"/>
<feColorMatrix type="matrix" values="0 0 0 0 0.180392 0 0 0 0 0.184314 0 0 0 0 0.258824 0 0 0 0.08 0"/>
<feBlend mode="normal" in2="BackgroundImageFix" result="effect1_dropShadow_297053_2137"/>
<feColorMatrix in="SourceAlpha" type="matrix" values="0 0 0 0 0 0 0 0 0 0 0 0 0 0 0 0 0 0 127 0" result="hardAlpha"/>
<feOffset dy="1"/>
<feGaussianBlur stdDeviation="0.5"/>
<feComposite in2="hardAlpha" operator="out"/>
<feColorMatrix type="matrix" values="0 0 0 0 0.180392 0 0 0 0 0.184314 0 0 0 0 0.258824 0 0 0 0.16 0"/>
<feBlend mode="normal" in2="effect1_dropShadow_297053_2137" result="effect2_dropShadow_297053_2137"/>
<feColorMatrix in="SourceAlpha" type="matrix" values="0 0 0 0 0 0 0 0 0 0 0 0 0 0 0 0 0 0 127 0" result="hardAlpha"/>
<feOffset dy="2"/>
<feGaussianBlur stdDeviation="0.5"/>
<feComposite in2="hardAlpha" operator="out"/>
<feColorMatrix type="matrix" values="0 0 0 0 0.180392 0 0 0 0 0.184314 0 0 0 0 0.258824 0 0 0 0.08 0"/>
<feBlend mode="normal" in2="effect2_dropShadow_297053_2137" result="effect3_dropShadow_297053_2137"/>
<feBlend mode="normal" in="SourceGraphic" in2="effect3_dropShadow_297053_2137" result="shape"/>
</filter>
<clipPath id="clip0_297053_2137">
<rect width="24" height="24" fill="white" transform="translate(54 729)"/>
</clipPath>
<clipPath id="clip1_297053_2137">
<rect width="24" height="24" fill="white" transform="translate(150 729)"/>
</clipPath>
<clipPath id="clip2_297053_2137">
<rect width="24" height="24" fill="white" transform="translate(246 729)"/>
</clipPath>
<clipPath id="clip3_297053_2137">
<rect width="24" height="24" fill="white" transform="translate(342 729)"/>
</clipPath>
<clipPath id="clip4_297053_2137">
<rect width="8" height="8" fill="white" transform="translate(394 37)"/>
</clipPath>
</defs>
</svg>
